<svg xmlns="http://www.w3.org/2000/svg" xmlns:xlink="http://www.w3.org/1999/xlink" width="200" zoomAndPan="magnify" viewBox="0 0 150 149.999998" height="200" preserveAspectRatio="xMidYMid meet" version="1.0"><path fill="rgb(92.939758%, 92.939758%, 92.939758%)" d="M 100.007812 4.265625 L 100.007812 145.734375 C 92.191406 148.503906 83.78125 150 75 150 C 66.21875 150 57.808594 148.503906 49.992188 145.734375 L 49.992188 4.265625 C 57.828125 1.496094 66.242188 0 75 0 C 83.757812 0 92.191406 1.496094 100.007812 4.265625 Z M 100.007812 4.265625 " fill-opacity="1" fill-rule="nonzero"/><path fill="rgb(95.689392%, 14.898682%, 24.708557%)" d="M 150 75 C 150 80.128906 149.488281 85.15625 148.503906 89.996094 C 147.804688 93.421875 146.882812 96.765625 145.734375 99.984375 C 138.203125 121.300781 121.320312 138.183594 100.007812 145.710938 L 100.007812 4.265625 C 121.320312 11.796875 138.203125 28.699219 145.734375 49.992188 C 146.882812 53.234375 147.804688 56.578125 148.503906 59.984375 C 149.488281 64.84375 150 69.871094 150 75 Z M 150 75 " fill-opacity="1" fill-rule="nonzero"/><path fill="rgb(0%, 10.198975%, 62.748718%)" d="M 49.992188 4.265625 L 49.992188 145.734375 C 28.699219 138.203125 11.796875 121.320312 4.265625 100.007812 C 3.117188 96.765625 2.195312 93.421875 1.496094 90.015625 C 0.511719 85.15625 0 80.148438 0 75 C 0 69.871094 0.511719 64.84375 1.496094 60.003906 C 2.195312 56.578125 3.117188 53.234375 4.265625 50.015625 C 11.796875 28.699219 28.699219 11.796875 49.992188 4.265625 Z M 49.992188 4.265625 " fill-opacity="1" fill-rule="nonzero"/></svg>