<svg xmlns="http://www.w3.org/2000/svg" xmlns:xlink="http://www.w3.org/1999/xlink" width="200" zoomAndPan="magnify" viewBox="0 0 150 149.999998" height="200" preserveAspectRatio="xMidYMid meet" version="1.0"><path fill="rgb(92.939758%, 11.369324%, 14.118958%)" d="M 74.980469 149.976562 C 75.832031 149.976562 76.679688 149.957031 77.523438 149.929688 L 72.441406 149.929688 C 73.285156 149.957031 74.128906 149.976562 74.980469 149.976562 " fill-opacity="1" fill-rule="nonzero"/><path fill="rgb(92.939758%, 11.369324%, 14.118958%)" d="M 5.003906 47.96875 C 1.765625 56.347656 -0.015625 65.457031 -0.015625 74.980469 C -0.015625 84.488281 1.757812 93.582031 4.984375 101.953125 L 144.972656 101.953125 C 148.199219 93.582031 149.976562 84.488281 149.976562 74.980469 C 149.976562 65.457031 148.195312 56.347656 144.957031 47.96875 L 5.003906 47.96875 " fill-opacity="1" fill-rule="nonzero"/><path fill="rgb(6.269836%, 5.879211%, 5.099487%)" d="M 74.980469 -0.015625 C 43.085938 -0.015625 15.847656 19.898438 5.003906 47.96875 L 144.957031 47.96875 C 134.113281 19.898438 106.875 -0.015625 74.980469 -0.015625 " fill-opacity="1" fill-rule="nonzero"/><path fill="rgb(96.859741%, 92.939758%, 3.138733%)" d="M 72.441406 149.929688 L 77.523438 149.929688 C 108.332031 148.898438 134.429688 129.292969 144.972656 101.953125 L 4.984375 101.953125 C 15.53125 129.292969 41.628906 148.898438 72.441406 149.929688 " fill-opacity="1" fill-rule="nonzero"/></svg>