<svg xmlns="http://www.w3.org/2000/svg" xmlns:xlink="http://www.w3.org/1999/xlink" width="200" zoomAndPan="magnify" viewBox="0 0 150 149.999998" height="200" preserveAspectRatio="xMidYMid meet" version="1.0"><path fill="rgb(10.5896%, 23.529053%, 54.508972%)" d="M 75 150 C 106.746094 150 133.886719 130.277344 144.832031 102.414062 C 145.144531 101.617188 145.441406 100.808594 145.726562 100 L 4.269531 100 C 14.566406 129.128906 42.34375 150 75 150 " fill-opacity="1" fill-rule="nonzero"/><path fill="rgb(91.758728%, 91.758728%, 91.758728%)" d="M 150 75 C 150 69.929688 149.496094 64.976562 148.535156 60.1875 C 147.835938 56.695312 146.894531 53.296875 145.726562 50 L 4.273438 50 C 3.121094 53.257812 2.183594 56.613281 1.488281 60.058594 C 0.511719 64.886719 0 69.882812 0 75 C 0 80.871094 0.675781 86.582031 1.949219 92.0625 C 2.578125 94.769531 3.359375 97.414062 4.269531 100 L 145.726562 100 C 148.492188 92.179688 150 83.765625 150 75 " fill-opacity="1" fill-rule="nonzero"/><path fill="rgb(71.369934%, 9.01947%, 12.939453%)" d="M 75.003906 0 L 74.996094 0 C 42.34375 0 14.566406 20.871094 4.273438 50 L 145.726562 50 C 135.433594 20.871094 107.65625 0 75.003906 0 " fill-opacity="1" fill-rule="nonzero"/></svg>