<svg xmlns="http://www.w3.org/2000/svg" xmlns:xlink="http://www.w3.org/1999/xlink" width="200" zoomAndPan="magnify" viewBox="0 0 150 149.999998" height="200" preserveAspectRatio="xMidYMid meet" version="1.0"><path fill="rgb(92.939758%, 92.939758%, 92.939758%)" d="M 100 4.269531 L 100 145.730469 C 92.1875 148.496094 83.757812 150 74.992188 150 C 66.222656 150 57.8125 148.496094 49.984375 145.730469 L 49.984375 4.269531 C 57.8125 1.503906 66.242188 0 75.007812 0 C 83.777344 0 92.1875 1.503906 100 4.269531 Z M 100 4.269531 " fill-opacity="1" fill-rule="nonzero"/><path fill="rgb(81.17981%, 15.289307%, 20.388794%)" d="M 150 75.007812 C 150 80.152344 149.480469 85.167969 148.496094 90.003906 C 147.800781 93.433594 146.878906 96.765625 145.730469 100 C 138.207031 121.320312 121.320312 138.207031 100 145.730469 L 100 4.269531 C 121.304688 11.808594 138.207031 28.695312 145.730469 50 C 146.878906 53.234375 147.800781 56.582031 148.496094 59.996094 C 149.480469 64.847656 150 69.863281 150 75.007812 Z M 150 75.007812 " fill-opacity="1" fill-rule="nonzero"/><path fill="rgb(0%, 57.649231%, 26.669312%)" d="M 50 4.269531 L 50 145.730469 C 28.695312 138.207031 11.792969 121.320312 4.269531 100 C 3.121094 96.765625 2.199219 93.417969 1.503906 90.003906 C 0.519531 85.152344 0 80.136719 0 75.007812 C 0 69.878906 0.519531 64.847656 1.503906 60.011719 C 2.199219 56.582031 3.121094 53.25 4.269531 50.015625 C 11.792969 28.695312 28.695312 11.792969 50 4.269531 Z M 50 4.269531 " fill-opacity="1" fill-rule="nonzero"/></svg>