<svg xmlns="http://www.w3.org/2000/svg" xmlns:xlink="http://www.w3.org/1999/xlink" width="450" zoomAndPan="magnify" viewBox="0 0 337.5 149.999998" height="200" preserveAspectRatio="xMidYMid meet" version="1.0"><defs><g><g id="id1"/></g><clipPath id="id2"><path d="M 15 24.136719 L 117 24.136719 L 117 126.136719 L 15 126.136719 Z M 15 24.136719 " clip-rule="nonzero"/></clipPath></defs><g fill="rgb(100%, 100%, 100%)" fill-opacity="1"><g transform="translate(126.086687, 100.861618)"><g><path d="M 1.28125 0 L 1.28125 -28.90625 L 7.0625 -28.90625 L 7.0625 -4.90625 L 13.03125 -4.90625 L 13.03125 0 Z M 1.28125 0 "/></g></g></g><g fill="rgb(100%, 100%, 100%)" fill-opacity="1"><g transform="translate(139.446248, 100.861618)"><g><path d="M 0.5 0 L 3.296875 -28.90625 L 13.09375 -28.90625 L 15.859375 0 L 10.359375 0 L 9.96875 -4.671875 L 6.46875 -4.671875 L 6.125 0 Z M 6.90625 -9.296875 L 9.53125 -9.296875 L 8.25 -24 L 7.96875 -24 Z M 6.90625 -9.296875 "/></g></g></g><g fill="rgb(100%, 100%, 100%)" fill-opacity="1"><g transform="translate(155.767117, 100.861618)"><g><path d="M 1.28125 0 L 1.28125 -28.90625 L 7.234375 -28.90625 L 9.890625 -15.078125 L 9.890625 -28.90625 L 15.484375 -28.90625 L 15.484375 0 L 9.828125 0 L 6.9375 -14.46875 L 6.9375 0 Z M 1.28125 0 "/></g></g></g><g fill="rgb(100%, 100%, 100%)" fill-opacity="1"><g transform="translate(172.525447, 100.861618)"><g><path d="M 7.234375 0.265625 C 5.148438 0.265625 3.597656 -0.46875 2.578125 -1.9375 C 1.554688 -3.40625 1.046875 -5.628906 1.046875 -8.609375 L 1.046875 -21.0625 C 1.046875 -23.738281 1.640625 -25.757812 2.828125 -27.125 C 4.015625 -28.5 5.785156 -29.1875 8.140625 -29.1875 C 10.046875 -29.1875 11.523438 -28.800781 12.578125 -28.03125 C 13.640625 -27.269531 14.367188 -26.160156 14.765625 -24.703125 C 15.171875 -23.242188 15.375 -21.367188 15.375 -19.078125 L 9.734375 -19.078125 L 9.734375 -21.671875 C 9.734375 -22.367188 9.632812 -22.90625 9.4375 -23.28125 C 9.25 -23.664062 8.910156 -23.859375 8.421875 -23.859375 C 7.316406 -23.859375 6.765625 -23.140625 6.765625 -21.703125 L 6.765625 -7.703125 C 6.765625 -6.828125 6.875 -6.164062 7.09375 -5.71875 C 7.320312 -5.269531 7.71875 -5.046875 8.28125 -5.046875 C 8.84375 -5.046875 9.234375 -5.269531 9.453125 -5.71875 C 9.679688 -6.164062 9.796875 -6.828125 9.796875 -7.703125 L 9.796875 -11.84375 L 8.25 -11.84375 L 8.25 -16.828125 L 15.3125 -16.828125 L 15.3125 0 L 12.984375 0 L 12.015625 -2.421875 C 10.984375 -0.628906 9.390625 0.265625 7.234375 0.265625 Z M 7.234375 0.265625 "/></g></g></g><g fill="rgb(100%, 100%, 100%)" fill-opacity="1"><g transform="translate(188.846317, 100.861618)"><g><path d="M 7.96875 0.265625 C 5.59375 0.265625 3.828125 -0.40625 2.671875 -1.75 C 1.515625 -3.09375 0.9375 -5.085938 0.9375 -7.734375 L 0.9375 -28.90625 L 6.5625 -28.90625 L 6.5625 -7.96875 C 6.5625 -7.050781 6.648438 -6.332031 6.828125 -5.8125 C 7.003906 -5.300781 7.382812 -5.046875 7.96875 -5.046875 C 8.5625 -5.046875 8.945312 -5.296875 9.125 -5.796875 C 9.300781 -6.304688 9.390625 -7.03125 9.390625 -7.96875 L 9.390625 -28.90625 L 15.015625 -28.90625 L 15.015625 -7.734375 C 15.015625 -5.085938 14.4375 -3.09375 13.28125 -1.75 C 12.125 -0.40625 10.351562 0.265625 7.96875 0.265625 Z M 7.96875 0.265625 "/></g></g></g><g fill="rgb(100%, 100%, 100%)" fill-opacity="1"><g transform="translate(204.797019, 100.861618)"><g><path d="M 0.5 0 L 3.296875 -28.90625 L 13.09375 -28.90625 L 15.859375 0 L 10.359375 0 L 9.96875 -4.671875 L 6.46875 -4.671875 L 6.125 0 Z M 6.90625 -9.296875 L 9.53125 -9.296875 L 8.25 -24 L 7.96875 -24 Z M 6.90625 -9.296875 "/></g></g></g><g fill="rgb(100%, 100%, 100%)" fill-opacity="1"><g transform="translate(221.117888, 100.861618)"><g><path d="M 7.234375 0.265625 C 5.148438 0.265625 3.597656 -0.46875 2.578125 -1.9375 C 1.554688 -3.40625 1.046875 -5.628906 1.046875 -8.609375 L 1.046875 -21.0625 C 1.046875 -23.738281 1.640625 -25.757812 2.828125 -27.125 C 4.015625 -28.5 5.785156 -29.1875 8.140625 -29.1875 C 10.046875 -29.1875 11.523438 -28.800781 12.578125 -28.03125 C 13.640625 -27.269531 14.367188 -26.160156 14.765625 -24.703125 C 15.171875 -23.242188 15.375 -21.367188 15.375 -19.078125 L 9.734375 -19.078125 L 9.734375 -21.671875 C 9.734375 -22.367188 9.632812 -22.90625 9.4375 -23.28125 C 9.25 -23.664062 8.910156 -23.859375 8.421875 -23.859375 C 7.316406 -23.859375 6.765625 -23.140625 6.765625 -21.703125 L 6.765625 -7.703125 C 6.765625 -6.828125 6.875 -6.164062 7.09375 -5.71875 C 7.320312 -5.269531 7.71875 -5.046875 8.28125 -5.046875 C 8.84375 -5.046875 9.234375 -5.269531 9.453125 -5.71875 C 9.679688 -6.164062 9.796875 -6.828125 9.796875 -7.703125 L 9.796875 -11.84375 L 8.25 -11.84375 L 8.25 -16.828125 L 15.3125 -16.828125 L 15.3125 0 L 12.984375 0 L 12.015625 -2.421875 C 10.984375 -0.628906 9.390625 0.265625 7.234375 0.265625 Z M 7.234375 0.265625 "/></g></g></g><g fill="rgb(100%, 100%, 100%)" fill-opacity="1"><g transform="translate(237.438758, 100.861618)"><g><path d="M 1.28125 0 L 1.28125 -28.90625 L 12.859375 -28.90625 L 12.859375 -23.328125 L 7.171875 -23.328125 L 7.171875 -17.703125 L 12.625 -17.703125 L 12.625 -12.25 L 7.171875 -12.25 L 7.171875 -5.625 L 13.234375 -5.625 L 13.234375 0 Z M 1.28125 0 "/></g></g></g><g fill="rgb(100%, 100%, 100%)" fill-opacity="1"><g transform="translate(251.303082, 100.861618)"><g><path d="M 1.28125 0 L 1.28125 -28.90625 L 7.0625 -28.90625 L 7.0625 -4.90625 L 13.03125 -4.90625 L 13.03125 0 Z M 1.28125 0 "/></g></g></g><g fill="rgb(100%, 100%, 100%)" fill-opacity="1"><g transform="translate(264.662643, 100.861618)"><g><path d="M 0.5 0 L 3.296875 -28.90625 L 13.09375 -28.90625 L 15.859375 0 L 10.359375 0 L 9.96875 -4.671875 L 6.46875 -4.671875 L 6.125 0 Z M 6.90625 -9.296875 L 9.53125 -9.296875 L 8.25 -24 L 7.96875 -24 Z M 6.90625 -9.296875 "/></g></g></g><g fill="rgb(100%, 100%, 100%)" fill-opacity="1"><g transform="translate(280.983513, 100.861618)"><g><path d="M 1.28125 0 L 1.28125 -28.90625 L 7.234375 -28.90625 L 9.890625 -15.078125 L 9.890625 -28.90625 L 15.484375 -28.90625 L 15.484375 0 L 9.828125 0 L 6.9375 -14.46875 L 6.9375 0 Z M 1.28125 0 "/></g></g></g><g fill="rgb(100%, 100%, 100%)" fill-opacity="1"><g transform="translate(297.741842, 100.861618)"><g><path d="M 1.28125 -28.90625 L 9.25 -28.90625 C 11.320312 -28.90625 12.875 -28.332031 13.90625 -27.1875 C 14.9375 -26.050781 15.460938 -24.359375 15.484375 -22.109375 L 15.546875 -8.578125 C 15.566406 -5.734375 15.070312 -3.59375 14.0625 -2.15625 C 13.050781 -0.71875 11.378906 0 9.046875 0 L 1.28125 0 Z M 8.109375 -5.109375 C 9.160156 -5.109375 9.6875 -5.625 9.6875 -6.65625 L 9.6875 -21.578125 C 9.6875 -22.222656 9.632812 -22.707031 9.53125 -23.03125 C 9.4375 -23.363281 9.253906 -23.582031 8.984375 -23.6875 C 8.710938 -23.800781 8.296875 -23.859375 7.734375 -23.859375 L 7.09375 -23.859375 L 7.09375 -5.109375 Z M 8.109375 -5.109375 "/></g></g></g><g clip-path="url(#id2)"><path fill="rgb(100%, 100%, 100%)" d="M 102.0625 111.195312 C 92.828125 120.425781 80.078125 126.136719 66 126.136719 C 51.917969 126.136719 39.167969 120.425781 29.9375 111.195312 C 20.707031 101.964844 15 89.214844 15 75.136719 C 15 61.050781 20.707031 48.300781 29.9375 39.074219 C 39.167969 29.84375 51.917969 24.136719 66 24.136719 C 80.078125 24.136719 92.828125 29.84375 102.058594 39.074219 C 111.289062 48.300781 117 61.050781 117 75.136719 C 116.996094 89.214844 111.289062 101.964844 102.0625 111.195312 M 95.65625 78.835938 C 95.285156 84.554688 94.0625 90.039062 92.113281 95.171875 C 95.1875 97.007812 98.050781 99.15625 100.660156 101.578125 C 105.5625 95.160156 108.722656 87.34375 109.4375 78.835938 Z M 92.113281 55.09375 C 94.0625 60.226562 95.285156 65.714844 95.65625 71.433594 L 109.4375 71.433594 C 108.726562 62.921875 105.5625 55.105469 100.660156 48.691406 C 98.050781 51.109375 95.1875 53.257812 92.113281 55.09375 Z M 76.742188 32.871094 C 77.597656 33.632812 78.433594 34.417969 79.246094 35.230469 C 83.097656 39.082031 86.398438 43.488281 89.011719 48.316406 C 91.398438 46.832031 93.636719 45.117188 95.691406 43.210938 C 90.417969 38.308594 83.9375 34.695312 76.742188 32.871094 Z M 42.988281 48.316406 C 45.597656 43.488281 48.898438 39.082031 52.75 35.230469 C 53.558594 34.417969 54.394531 33.632812 55.253906 32.871094 C 48.058594 34.695312 41.574219 38.308594 36.308594 43.210938 C 38.359375 45.117188 40.597656 46.832031 42.988281 48.316406 Z M 36.339844 71.433594 C 36.710938 65.710938 37.933594 60.226562 39.882812 55.09375 C 36.808594 53.257812 33.945312 51.109375 31.335938 48.6875 C 26.433594 55.105469 23.273438 62.921875 22.558594 71.433594 Z M 39.882812 95.171875 C 37.933594 90.039062 36.710938 84.554688 36.339844 78.835938 L 22.558594 78.835938 C 23.273438 87.34375 26.4375 95.160156 31.335938 101.578125 C 33.945312 99.15625 36.808594 97.007812 39.882812 95.171875 Z M 55.253906 117.394531 C 54.394531 116.632812 53.5625 115.847656 52.75 115.035156 C 48.898438 111.183594 45.597656 106.777344 42.988281 101.949219 C 40.597656 103.433594 38.363281 105.148438 36.3125 107.054688 C 41.574219 111.960938 48.058594 115.574219 55.253906 117.394531 Z M 62.296875 54.722656 L 62.296875 36.628906 C 60.785156 37.824219 59.34375 39.101562 57.984375 40.460938 C 54.679688 43.769531 51.839844 47.546875 49.585938 51.683594 C 53.5625 53.300781 57.835938 54.347656 62.296875 54.722656 Z M 62.296875 71.433594 L 62.296875 62.148438 C 56.753906 61.75 51.457031 60.464844 46.539062 58.4375 C 45.050781 62.542969 44.097656 66.902344 43.761719 71.433594 Z M 62.296875 88.117188 L 62.296875 78.835938 L 43.761719 78.835938 C 44.097656 83.363281 45.050781 87.722656 46.539062 91.828125 C 51.453125 89.796875 56.753906 88.515625 62.296875 88.117188 Z M 62.296875 113.636719 L 62.296875 95.542969 C 57.835938 95.917969 53.5625 96.964844 49.585938 98.582031 C 51.839844 102.71875 54.679688 106.496094 57.984375 109.800781 C 59.34375 111.164062 60.785156 112.445312 62.296875 113.636719 Z M 69.699219 95.542969 L 69.699219 113.636719 C 71.210938 112.445312 72.648438 111.164062 74.011719 109.800781 C 77.316406 106.5 80.152344 102.722656 82.410156 98.582031 C 78.433594 96.964844 74.160156 95.917969 69.699219 95.542969 Z M 69.699219 78.835938 L 69.699219 88.117188 C 75.242188 88.515625 80.542969 89.796875 85.457031 91.824219 C 86.945312 87.722656 87.898438 83.363281 88.234375 78.832031 L 69.699219 78.832031 Z M 69.699219 62.148438 L 69.699219 71.433594 L 88.234375 71.433594 C 87.898438 66.898438 86.941406 62.542969 85.453125 58.4375 C 80.542969 60.46875 75.242188 61.75 69.699219 62.148438 Z M 69.699219 36.628906 L 69.699219 54.722656 C 74.15625 54.351562 78.429688 53.300781 82.410156 51.683594 C 80.152344 47.546875 77.316406 43.769531 74.011719 40.464844 C 72.648438 39.101562 71.210938 37.820312 69.699219 36.628906 Z M 76.738281 117.394531 C 83.9375 115.574219 90.421875 111.960938 95.6875 107.058594 C 93.632812 105.148438 91.398438 103.4375 89.007812 101.949219 C 86.394531 106.78125 83.097656 111.1875 79.246094 115.039062 C 78.433594 115.847656 77.597656 116.632812 76.738281 117.394531 Z M 76.738281 117.394531 " fill-opacity="1" fill-rule="nonzero"/></g></svg>