<svg xmlns="http://www.w3.org/2000/svg" xmlns:xlink="http://www.w3.org/1999/xlink" width="450" zoomAndPan="magnify" viewBox="0 0 337.5 149.999998" height="200" preserveAspectRatio="xMidYMid meet" version="1.0"><defs><g><g id="id1"/></g><clipPath id="id2"><path d="M 15 24.136719 L 117 24.136719 L 117 126.136719 L 15 126.136719 Z M 15 24.136719 " clip-rule="nonzero"/></clipPath></defs><g fill="rgb(100%, 100%, 100%)" fill-opacity="1"><g transform="translate(125.921344, 89.000397)"><g><path d="M 1.28125 0 L 1.28125 -28.9375 L 7.078125 -28.9375 L 7.078125 -4.921875 L 13.03125 -4.921875 L 13.03125 0 Z M 1.28125 0 "/></g></g></g><g fill="rgb(100%, 100%, 100%)" fill-opacity="1"><g transform="translate(139.29215, 89.000397)"><g><path d="M 0.5 0 L 3.296875 -28.9375 L 13.109375 -28.9375 L 15.859375 0 L 10.375 0 L 9.96875 -4.6875 L 6.46875 -4.6875 L 6.125 0 Z M 6.90625 -9.296875 L 9.53125 -9.296875 L 8.25 -24.015625 L 7.984375 -24.015625 Z M 6.90625 -9.296875 "/></g></g></g><g fill="rgb(100%, 100%, 100%)" fill-opacity="1"><g transform="translate(155.626758, 89.000397)"><g><path d="M 1.28125 0 L 1.28125 -28.9375 L 7.25 -28.9375 L 9.90625 -15.09375 L 9.90625 -28.9375 L 15.5 -28.9375 L 15.5 0 L 9.84375 0 L 6.9375 -14.484375 L 6.9375 0 Z M 1.28125 0 "/></g></g></g><g fill="rgb(100%, 100%, 100%)" fill-opacity="1"><g transform="translate(172.399195, 89.000397)"><g><path d="M 7.25 0.265625 C 5.15625 0.265625 3.597656 -0.46875 2.578125 -1.9375 C 1.554688 -3.40625 1.046875 -5.632812 1.046875 -8.625 L 1.046875 -21.09375 C 1.046875 -23.757812 1.640625 -25.773438 2.828125 -27.140625 C 4.015625 -28.515625 5.789062 -29.203125 8.15625 -29.203125 C 10.0625 -29.203125 11.539062 -28.820312 12.59375 -28.0625 C 13.65625 -27.300781 14.382812 -26.1875 14.78125 -24.71875 C 15.1875 -23.257812 15.390625 -21.382812 15.390625 -19.09375 L 9.734375 -19.09375 L 9.734375 -21.6875 C 9.734375 -22.382812 9.632812 -22.925781 9.4375 -23.3125 C 9.25 -23.695312 8.910156 -23.890625 8.421875 -23.890625 C 7.316406 -23.890625 6.765625 -23.171875 6.765625 -21.734375 L 6.765625 -7.71875 C 6.765625 -6.84375 6.875 -6.175781 7.09375 -5.71875 C 7.320312 -5.269531 7.71875 -5.046875 8.28125 -5.046875 C 8.84375 -5.046875 9.234375 -5.269531 9.453125 -5.71875 C 9.679688 -6.175781 9.796875 -6.84375 9.796875 -7.71875 L 9.796875 -11.859375 L 8.25 -11.859375 L 8.25 -16.84375 L 15.328125 -16.84375 L 15.328125 0 L 13 0 L 12.03125 -2.421875 C 11 -0.628906 9.40625 0.265625 7.25 0.265625 Z M 7.25 0.265625 "/></g></g></g><g fill="rgb(100%, 100%, 100%)" fill-opacity="1"><g transform="translate(188.733803, 89.000397)"><g><path d="M 7.984375 0.265625 C 5.597656 0.265625 3.828125 -0.40625 2.671875 -1.75 C 1.515625 -3.09375 0.9375 -5.09375 0.9375 -7.75 L 0.9375 -28.9375 L 6.5625 -28.9375 L 6.5625 -7.984375 C 6.5625 -7.066406 6.648438 -6.347656 6.828125 -5.828125 C 7.015625 -5.304688 7.398438 -5.046875 7.984375 -5.046875 C 8.566406 -5.046875 8.945312 -5.296875 9.125 -5.796875 C 9.3125 -6.304688 9.40625 -7.035156 9.40625 -7.984375 L 9.40625 -28.9375 L 15.03125 -28.9375 L 15.03125 -7.75 C 15.03125 -5.09375 14.453125 -3.09375 13.296875 -1.75 C 12.140625 -0.40625 10.367188 0.265625 7.984375 0.265625 Z M 7.984375 0.265625 "/></g></g></g><g fill="rgb(100%, 100%, 100%)" fill-opacity="1"><g transform="translate(204.697931, 89.000397)"><g><path d="M 0.5 0 L 3.296875 -28.9375 L 13.109375 -28.9375 L 15.859375 0 L 10.375 0 L 9.96875 -4.6875 L 6.46875 -4.6875 L 6.125 0 Z M 6.90625 -9.296875 L 9.53125 -9.296875 L 8.25 -24.015625 L 7.984375 -24.015625 Z M 6.90625 -9.296875 "/></g></g></g><g fill="rgb(100%, 100%, 100%)" fill-opacity="1"><g transform="translate(221.032539, 89.000397)"><g><path d="M 7.25 0.265625 C 5.15625 0.265625 3.597656 -0.46875 2.578125 -1.9375 C 1.554688 -3.40625 1.046875 -5.632812 1.046875 -8.625 L 1.046875 -21.09375 C 1.046875 -23.757812 1.640625 -25.773438 2.828125 -27.140625 C 4.015625 -28.515625 5.789062 -29.203125 8.15625 -29.203125 C 10.0625 -29.203125 11.539062 -28.820312 12.59375 -28.0625 C 13.65625 -27.300781 14.382812 -26.1875 14.78125 -24.71875 C 15.1875 -23.257812 15.390625 -21.382812 15.390625 -19.09375 L 9.734375 -19.09375 L 9.734375 -21.6875 C 9.734375 -22.382812 9.632812 -22.925781 9.4375 -23.3125 C 9.25 -23.695312 8.910156 -23.890625 8.421875 -23.890625 C 7.316406 -23.890625 6.765625 -23.171875 6.765625 -21.734375 L 6.765625 -7.71875 C 6.765625 -6.84375 6.875 -6.175781 7.09375 -5.71875 C 7.320312 -5.269531 7.71875 -5.046875 8.28125 -5.046875 C 8.84375 -5.046875 9.234375 -5.269531 9.453125 -5.71875 C 9.679688 -6.175781 9.796875 -6.84375 9.796875 -7.71875 L 9.796875 -11.859375 L 8.25 -11.859375 L 8.25 -16.84375 L 15.328125 -16.84375 L 15.328125 0 L 13 0 L 12.03125 -2.421875 C 11 -0.628906 9.40625 0.265625 7.25 0.265625 Z M 7.25 0.265625 "/></g></g></g><g fill="rgb(100%, 100%, 100%)" fill-opacity="1"><g transform="translate(237.367147, 89.000397)"><g><path d="M 1.28125 0 L 1.28125 -28.9375 L 12.875 -28.9375 L 12.875 -23.34375 L 7.171875 -23.34375 L 7.171875 -17.71875 L 12.640625 -17.71875 L 12.640625 -12.265625 L 7.171875 -12.265625 L 7.171875 -5.625 L 13.234375 -5.625 L 13.234375 0 Z M 1.28125 0 "/></g></g></g><g fill="rgb(100%, 100%, 100%)" fill-opacity="1"><g transform="translate(251.243142, 89.000397)"><g><path d="M 1.28125 0 L 1.28125 -28.9375 L 7.078125 -28.9375 L 7.078125 -4.921875 L 13.03125 -4.921875 L 13.03125 0 Z M 1.28125 0 "/></g></g></g><g fill="rgb(100%, 100%, 100%)" fill-opacity="1"><g transform="translate(264.613948, 89.000397)"><g><path d="M 0.5 0 L 3.296875 -28.9375 L 13.109375 -28.9375 L 15.859375 0 L 10.375 0 L 9.96875 -4.6875 L 6.46875 -4.6875 L 6.125 0 Z M 6.90625 -9.296875 L 9.53125 -9.296875 L 8.25 -24.015625 L 7.984375 -24.015625 Z M 6.90625 -9.296875 "/></g></g></g><g fill="rgb(100%, 100%, 100%)" fill-opacity="1"><g transform="translate(280.948556, 89.000397)"><g><path d="M 1.28125 0 L 1.28125 -28.9375 L 7.25 -28.9375 L 9.90625 -15.09375 L 9.90625 -28.9375 L 15.5 -28.9375 L 15.5 0 L 9.84375 0 L 6.9375 -14.484375 L 6.9375 0 Z M 1.28125 0 "/></g></g></g><g fill="rgb(100%, 100%, 100%)" fill-opacity="1"><g transform="translate(297.720993, 89.000397)"><g><path d="M 1.28125 -28.9375 L 9.265625 -28.9375 C 11.328125 -28.9375 12.875 -28.363281 13.90625 -27.21875 C 14.945312 -26.070312 15.476562 -24.375 15.5 -22.125 L 15.5625 -8.59375 C 15.582031 -5.738281 15.085938 -3.59375 14.078125 -2.15625 C 13.066406 -0.71875 11.394531 0 9.0625 0 L 1.28125 0 Z M 8.125 -5.125 C 9.175781 -5.125 9.703125 -5.640625 9.703125 -6.671875 L 9.703125 -21.59375 C 9.703125 -22.25 9.648438 -22.738281 9.546875 -23.0625 C 9.453125 -23.382812 9.269531 -23.601562 9 -23.71875 C 8.726562 -23.832031 8.3125 -23.890625 7.75 -23.890625 L 7.109375 -23.890625 L 7.109375 -5.125 Z M 8.125 -5.125 "/></g></g></g><g clip-path="url(#id2)"><path fill="rgb(100%, 100%, 100%)" d="M 102.0625 111.195312 C 92.828125 120.425781 80.078125 126.136719 66 126.136719 C 51.917969 126.136719 39.167969 120.425781 29.9375 111.195312 C 20.707031 101.964844 15 89.214844 15 75.136719 C 15 61.050781 20.707031 48.300781 29.9375 39.074219 C 39.167969 29.84375 51.917969 24.136719 66 24.136719 C 80.078125 24.136719 92.828125 29.84375 102.058594 39.074219 C 111.289062 48.300781 117 61.050781 117 75.136719 C 116.996094 89.214844 111.289062 101.964844 102.0625 111.195312 M 95.65625 78.835938 C 95.285156 84.554688 94.0625 90.039062 92.113281 95.171875 C 95.1875 97.007812 98.050781 99.15625 100.660156 101.578125 C 105.5625 95.160156 108.722656 87.34375 109.4375 78.835938 Z M 92.113281 55.09375 C 94.0625 60.226562 95.285156 65.714844 95.65625 71.433594 L 109.4375 71.433594 C 108.726562 62.921875 105.5625 55.105469 100.660156 48.691406 C 98.050781 51.109375 95.1875 53.257812 92.113281 55.09375 Z M 76.742188 32.871094 C 77.597656 33.632812 78.433594 34.417969 79.246094 35.230469 C 83.097656 39.082031 86.398438 43.488281 89.011719 48.316406 C 91.398438 46.832031 93.636719 45.117188 95.691406 43.210938 C 90.417969 38.308594 83.9375 34.695312 76.742188 32.871094 Z M 42.988281 48.316406 C 45.597656 43.488281 48.898438 39.082031 52.75 35.230469 C 53.558594 34.417969 54.394531 33.632812 55.253906 32.871094 C 48.058594 34.695312 41.574219 38.308594 36.308594 43.210938 C 38.359375 45.117188 40.597656 46.832031 42.988281 48.316406 Z M 36.339844 71.433594 C 36.710938 65.710938 37.933594 60.226562 39.882812 55.09375 C 36.808594 53.257812 33.945312 51.109375 31.335938 48.6875 C 26.433594 55.105469 23.273438 62.921875 22.558594 71.433594 Z M 39.882812 95.171875 C 37.933594 90.039062 36.710938 84.554688 36.339844 78.835938 L 22.558594 78.835938 C 23.273438 87.34375 26.4375 95.160156 31.335938 101.578125 C 33.945312 99.15625 36.808594 97.007812 39.882812 95.171875 Z M 55.253906 117.394531 C 54.394531 116.632812 53.5625 115.847656 52.75 115.035156 C 48.898438 111.183594 45.597656 106.777344 42.988281 101.949219 C 40.597656 103.433594 38.363281 105.148438 36.3125 107.054688 C 41.574219 111.960938 48.058594 115.574219 55.253906 117.394531 Z M 62.296875 54.722656 L 62.296875 36.628906 C 60.785156 37.824219 59.34375 39.101562 57.984375 40.460938 C 54.679688 43.769531 51.839844 47.546875 49.585938 51.683594 C 53.5625 53.300781 57.835938 54.347656 62.296875 54.722656 Z M 62.296875 71.433594 L 62.296875 62.148438 C 56.753906 61.75 51.457031 60.464844 46.539062 58.4375 C 45.050781 62.542969 44.097656 66.902344 43.761719 71.433594 Z M 62.296875 88.117188 L 62.296875 78.835938 L 43.761719 78.835938 C 44.097656 83.363281 45.050781 87.722656 46.539062 91.828125 C 51.453125 89.796875 56.753906 88.515625 62.296875 88.117188 Z M 62.296875 113.636719 L 62.296875 95.542969 C 57.835938 95.917969 53.5625 96.964844 49.585938 98.582031 C 51.839844 102.71875 54.679688 106.496094 57.984375 109.800781 C 59.34375 111.164062 60.785156 112.445312 62.296875 113.636719 Z M 69.699219 95.542969 L 69.699219 113.636719 C 71.210938 112.445312 72.648438 111.164062 74.011719 109.800781 C 77.316406 106.5 80.152344 102.722656 82.410156 98.582031 C 78.433594 96.964844 74.160156 95.917969 69.699219 95.542969 Z M 69.699219 78.835938 L 69.699219 88.117188 C 75.242188 88.515625 80.542969 89.796875 85.457031 91.824219 C 86.945312 87.722656 87.898438 83.363281 88.234375 78.832031 L 69.699219 78.832031 Z M 69.699219 62.148438 L 69.699219 71.433594 L 88.234375 71.433594 C 87.898438 66.898438 86.941406 62.542969 85.453125 58.4375 C 80.542969 60.46875 75.242188 61.75 69.699219 62.148438 Z M 69.699219 36.628906 L 69.699219 54.722656 C 74.15625 54.351562 78.429688 53.300781 82.410156 51.683594 C 80.152344 47.546875 77.316406 43.769531 74.011719 40.464844 C 72.648438 39.101562 71.210938 37.820312 69.699219 36.628906 Z M 76.738281 117.394531 C 83.9375 115.574219 90.421875 111.960938 95.6875 107.058594 C 93.632812 105.148438 91.398438 103.4375 89.007812 101.949219 C 86.394531 106.78125 83.097656 111.1875 79.246094 115.039062 C 78.433594 115.847656 77.597656 116.632812 76.738281 117.394531 Z M 76.738281 117.394531 " fill-opacity="1" fill-rule="nonzero"/></g></svg>