<svg xmlns="http://www.w3.org/2000/svg" xmlns:xlink="http://www.w3.org/1999/xlink" width="450" zoomAndPan="magnify" viewBox="0 0 337.5 112.499997" height="150" preserveAspectRatio="xMidYMid meet" version="1.0"><defs><g/><clipPath id="id1"><path d="M 8.667969 17.964844 L 84.941406 17.964844 L 84.941406 94.238281 L 8.667969 94.238281 Z M 8.667969 17.964844 " clip-rule="nonzero"/></clipPath></defs><g fill="rgb(100%, 98.81897%, 98.81897%)" fill-opacity="1"><g transform="translate(84.905067, 77.683616)"><g><path d="M 1.546875 0 L 1.546875 -35.09375 L 8.578125 -35.09375 L 8.578125 -5.96875 L 15.8125 -5.96875 L 15.8125 0 Z M 1.546875 0 "/></g></g></g><g fill="rgb(100%, 98.81897%, 98.81897%)" fill-opacity="1"><g transform="translate(101.126291, 77.683616)"><g><path d="M 0.609375 0 L 4 -35.09375 L 15.890625 -35.09375 L 19.25 0 L 12.578125 0 L 12.09375 -5.671875 L 7.84375 -5.671875 L 7.4375 0 Z M 8.375 -11.28125 L 11.5625 -11.28125 L 10.015625 -29.125 L 9.6875 -29.125 Z M 8.375 -11.28125 "/></g></g></g><g fill="rgb(100%, 98.81897%, 98.81897%)" fill-opacity="1"><g transform="translate(120.943151, 77.683616)"><g><path d="M 1.546875 0 L 1.546875 -35.09375 L 8.78125 -35.09375 L 12.015625 -18.3125 L 12.015625 -35.09375 L 18.796875 -35.09375 L 18.796875 0 L 11.9375 0 L 8.421875 -17.5625 L 8.421875 0 Z M 1.546875 0 "/></g></g></g><g fill="rgb(100%, 98.81897%, 98.81897%)" fill-opacity="1"><g transform="translate(141.291184, 77.683616)"><g><path d="M 8.78125 0.328125 C 6.25 0.328125 4.363281 -0.5625 3.125 -2.34375 C 1.882812 -4.132812 1.265625 -6.835938 1.265625 -10.453125 L 1.265625 -25.578125 C 1.265625 -28.816406 1.984375 -31.265625 3.421875 -32.921875 C 4.867188 -34.585938 7.023438 -35.421875 9.890625 -35.421875 C 12.203125 -35.421875 14 -34.957031 15.28125 -34.03125 C 16.5625 -33.101562 17.445312 -31.753906 17.9375 -29.984375 C 18.425781 -28.210938 18.671875 -25.941406 18.671875 -23.171875 L 11.8125 -23.171875 L 11.8125 -26.3125 C 11.8125 -27.15625 11.691406 -27.804688 11.453125 -28.265625 C 11.222656 -28.734375 10.8125 -28.96875 10.21875 -28.96875 C 8.882812 -28.96875 8.21875 -28.097656 8.21875 -26.359375 L 8.21875 -9.359375 C 8.21875 -8.296875 8.351562 -7.488281 8.625 -6.9375 C 8.894531 -6.394531 9.367188 -6.125 10.046875 -6.125 C 10.734375 -6.125 11.210938 -6.394531 11.484375 -6.9375 C 11.753906 -7.488281 11.890625 -8.296875 11.890625 -9.359375 L 11.890625 -14.375 L 10.015625 -14.375 L 10.015625 -20.4375 L 18.59375 -20.4375 L 18.59375 0 L 15.765625 0 L 14.59375 -2.9375 C 13.332031 -0.757812 11.394531 0.328125 8.78125 0.328125 Z M 8.78125 0.328125 "/></g></g></g><g fill="rgb(100%, 98.81897%, 98.81897%)" fill-opacity="1"><g transform="translate(161.108043, 77.683616)"><g><path d="M 9.6875 0.328125 C 6.800781 0.328125 4.65625 -0.488281 3.25 -2.125 C 1.84375 -3.757812 1.140625 -6.179688 1.140625 -9.390625 L 1.140625 -35.09375 L 7.96875 -35.09375 L 7.96875 -9.6875 C 7.96875 -8.570312 8.078125 -7.695312 8.296875 -7.0625 C 8.515625 -6.4375 8.976562 -6.125 9.6875 -6.125 C 10.394531 -6.125 10.859375 -6.429688 11.078125 -7.046875 C 11.296875 -7.660156 11.40625 -8.539062 11.40625 -9.6875 L 11.40625 -35.09375 L 18.21875 -35.09375 L 18.21875 -9.390625 C 18.21875 -6.179688 17.515625 -3.757812 16.109375 -2.125 C 14.710938 -0.488281 12.570312 0.328125 9.6875 0.328125 Z M 9.6875 0.328125 "/></g></g></g><g fill="rgb(100%, 98.81897%, 98.81897%)" fill-opacity="1"><g transform="translate(180.475449, 77.683616)"><g><path d="M 0.609375 0 L 4 -35.09375 L 15.890625 -35.09375 L 19.25 0 L 12.578125 0 L 12.09375 -5.671875 L 7.84375 -5.671875 L 7.4375 0 Z M 8.375 -11.28125 L 11.5625 -11.28125 L 10.015625 -29.125 L 9.6875 -29.125 Z M 8.375 -11.28125 "/></g></g></g><g fill="rgb(100%, 98.81897%, 98.81897%)" fill-opacity="1"><g transform="translate(200.292309, 77.683616)"><g><path d="M 8.78125 0.328125 C 6.25 0.328125 4.363281 -0.5625 3.125 -2.34375 C 1.882812 -4.132812 1.265625 -6.835938 1.265625 -10.453125 L 1.265625 -25.578125 C 1.265625 -28.816406 1.984375 -31.265625 3.421875 -32.921875 C 4.867188 -34.585938 7.023438 -35.421875 9.890625 -35.421875 C 12.203125 -35.421875 14 -34.957031 15.28125 -34.03125 C 16.5625 -33.101562 17.445312 -31.753906 17.9375 -29.984375 C 18.425781 -28.210938 18.671875 -25.941406 18.671875 -23.171875 L 11.8125 -23.171875 L 11.8125 -26.3125 C 11.8125 -27.15625 11.691406 -27.804688 11.453125 -28.265625 C 11.222656 -28.734375 10.8125 -28.96875 10.21875 -28.96875 C 8.882812 -28.96875 8.21875 -28.097656 8.21875 -26.359375 L 8.21875 -9.359375 C 8.21875 -8.296875 8.351562 -7.488281 8.625 -6.9375 C 8.894531 -6.394531 9.367188 -6.125 10.046875 -6.125 C 10.734375 -6.125 11.210938 -6.394531 11.484375 -6.9375 C 11.753906 -7.488281 11.890625 -8.296875 11.890625 -9.359375 L 11.890625 -14.375 L 10.015625 -14.375 L 10.015625 -20.4375 L 18.59375 -20.4375 L 18.59375 0 L 15.765625 0 L 14.59375 -2.9375 C 13.332031 -0.757812 11.394531 0.328125 8.78125 0.328125 Z M 8.78125 0.328125 "/></g></g></g><g fill="rgb(100%, 98.81897%, 98.81897%)" fill-opacity="1"><g transform="translate(220.109168, 77.683616)"><g><path d="M 1.546875 0 L 1.546875 -35.09375 L 15.609375 -35.09375 L 15.609375 -28.3125 L 8.703125 -28.3125 L 8.703125 -21.484375 L 15.328125 -21.484375 L 15.328125 -14.875 L 8.703125 -14.875 L 8.703125 -6.828125 L 16.0625 -6.828125 L 16.0625 0 Z M 1.546875 0 "/></g></g></g><g fill="rgb(100%, 98.81897%, 98.81897%)" fill-opacity="1"><g transform="translate(236.943287, 77.683616)"><g><path d="M 1.546875 0 L 1.546875 -35.09375 L 8.578125 -35.09375 L 8.578125 -5.96875 L 15.8125 -5.96875 L 15.8125 0 Z M 1.546875 0 "/></g></g></g><g fill="rgb(100%, 98.81897%, 98.81897%)" fill-opacity="1"><g transform="translate(253.164511, 77.683616)"><g><path d="M 0.609375 0 L 4 -35.09375 L 15.890625 -35.09375 L 19.25 0 L 12.578125 0 L 12.09375 -5.671875 L 7.84375 -5.671875 L 7.4375 0 Z M 8.375 -11.28125 L 11.5625 -11.28125 L 10.015625 -29.125 L 9.6875 -29.125 Z M 8.375 -11.28125 "/></g></g></g><g fill="rgb(100%, 98.81897%, 98.81897%)" fill-opacity="1"><g transform="translate(272.98137, 77.683616)"><g><path d="M 1.546875 0 L 1.546875 -35.09375 L 8.78125 -35.09375 L 12.015625 -18.3125 L 12.015625 -35.09375 L 18.796875 -35.09375 L 18.796875 0 L 11.9375 0 L 8.421875 -17.5625 L 8.421875 0 Z M 1.546875 0 "/></g></g></g><g fill="rgb(100%, 98.81897%, 98.81897%)" fill-opacity="1"><g transform="translate(293.329403, 77.683616)"><g><path d="M 1.546875 -35.09375 L 11.234375 -35.09375 C 13.742188 -35.09375 15.625 -34.398438 16.875 -33.015625 C 18.125 -31.628906 18.765625 -29.570312 18.796875 -26.84375 L 18.875 -10.421875 C 18.90625 -6.960938 18.304688 -4.359375 17.078125 -2.609375 C 15.847656 -0.867188 13.816406 0 10.984375 0 L 1.546875 0 Z M 9.84375 -6.203125 C 11.125 -6.203125 11.765625 -6.832031 11.765625 -8.09375 L 11.765625 -26.1875 C 11.765625 -26.976562 11.703125 -27.570312 11.578125 -27.96875 C 11.460938 -28.363281 11.238281 -28.628906 10.90625 -28.765625 C 10.582031 -28.898438 10.078125 -28.96875 9.390625 -28.96875 L 8.625 -28.96875 L 8.625 -6.203125 Z M 9.84375 -6.203125 "/></g></g></g><g clip-path="url(#id1)"><path fill="rgb(100%, 98.81897%, 98.81897%)" d="M 73.769531 83.066406 C 66.867188 89.96875 57.332031 94.238281 46.804688 94.238281 C 36.273438 94.238281 26.738281 89.96875 19.839844 83.066406 C 12.9375 76.164062 8.667969 66.628906 8.667969 56.101562 C 8.667969 45.570312 12.9375 36.035156 19.839844 29.136719 C 26.738281 22.234375 36.273438 17.964844 46.804688 17.964844 C 57.332031 17.964844 66.867188 22.234375 73.769531 29.136719 C 80.671875 36.035156 84.941406 45.570312 84.941406 56.101562 C 84.941406 66.628906 80.671875 76.164062 73.769531 83.066406 M 68.980469 58.867188 C 68.703125 63.144531 67.789062 67.25 66.332031 71.085938 C 68.632812 72.457031 70.773438 74.0625 72.722656 75.875 C 76.390625 71.078125 78.753906 65.234375 79.289062 58.867188 Z M 66.332031 41.117188 C 67.789062 44.953125 68.703125 49.058594 68.980469 53.335938 L 79.289062 53.335938 C 78.753906 46.96875 76.390625 41.125 72.722656 36.328125 C 70.773438 38.136719 68.632812 39.742188 66.332031 41.117188 Z M 54.835938 24.496094 C 55.476562 25.066406 56.101562 25.652344 56.710938 26.261719 C 59.589844 29.140625 62.058594 32.4375 64.011719 36.046875 C 65.796875 34.9375 67.46875 33.65625 69.007812 32.230469 C 65.066406 28.5625 60.21875 25.863281 54.835938 24.496094 Z M 29.59375 36.046875 C 31.550781 32.4375 34.015625 29.144531 36.894531 26.261719 C 37.503906 25.65625 38.128906 25.066406 38.769531 24.5 C 33.386719 25.863281 28.539062 28.5625 24.601562 32.230469 C 26.136719 33.65625 27.808594 34.9375 29.59375 36.046875 Z M 24.625 53.332031 C 24.902344 49.054688 25.816406 44.953125 27.273438 41.113281 C 24.976562 39.742188 22.835938 38.136719 20.882812 36.328125 C 17.21875 41.125 14.855469 46.96875 14.320312 53.332031 Z M 27.273438 71.085938 C 25.816406 67.25 24.902344 63.144531 24.625 58.871094 L 14.320312 58.871094 C 14.855469 65.230469 17.21875 71.078125 20.882812 75.875 C 22.835938 74.066406 24.976562 72.457031 27.273438 71.085938 Z M 38.769531 87.703125 C 38.128906 87.132812 37.503906 86.546875 36.898438 85.941406 C 34.015625 83.058594 31.550781 79.765625 29.597656 76.152344 C 27.808594 77.265625 26.136719 78.546875 24.605469 79.972656 C 28.539062 83.640625 33.386719 86.339844 38.769531 87.703125 Z M 44.035156 40.835938 L 44.035156 27.308594 C 42.90625 28.199219 41.828125 29.15625 40.8125 30.175781 C 38.339844 32.648438 36.21875 35.472656 34.53125 38.566406 C 37.503906 39.773438 40.699219 40.558594 44.035156 40.835938 Z M 44.035156 53.332031 L 44.035156 46.390625 C 39.890625 46.09375 35.929688 45.132812 32.253906 43.617188 C 31.140625 46.6875 30.425781 49.945312 30.175781 53.332031 Z M 44.035156 65.808594 L 44.035156 58.867188 L 30.175781 58.867188 C 30.425781 62.253906 31.140625 65.515625 32.253906 68.582031 C 35.929688 67.066406 39.890625 66.105469 44.035156 65.808594 Z M 44.035156 84.894531 L 44.035156 71.363281 C 40.699219 71.644531 37.503906 72.425781 34.53125 73.636719 C 36.21875 76.730469 38.339844 79.554688 40.808594 82.023438 C 41.828125 83.042969 42.90625 84 44.035156 84.894531 Z M 49.570312 71.363281 L 49.570312 84.894531 C 50.699219 84 51.777344 83.042969 52.792969 82.023438 C 55.265625 79.554688 57.386719 76.730469 59.074219 73.636719 C 56.101562 72.425781 52.90625 71.644531 49.570312 71.363281 Z M 49.570312 58.867188 L 49.570312 65.808594 C 53.71875 66.105469 57.679688 67.066406 61.351562 68.582031 C 62.464844 65.515625 63.179688 62.253906 63.433594 58.867188 Z M 49.570312 46.390625 L 49.570312 53.332031 L 63.429688 53.332031 C 63.179688 49.945312 62.464844 46.683594 61.351562 43.617188 C 57.679688 45.132812 53.71875 46.09375 49.570312 46.390625 Z M 49.570312 27.308594 L 49.570312 40.839844 C 52.90625 40.558594 56.101562 39.773438 59.074219 38.566406 C 57.386719 35.472656 55.265625 32.648438 52.792969 30.175781 C 51.777344 29.15625 50.699219 28.199219 49.570312 27.308594 Z M 54.835938 87.703125 C 60.21875 86.339844 65.066406 83.640625 69.003906 79.972656 C 67.46875 78.546875 65.796875 77.265625 64.007812 76.152344 C 62.054688 79.765625 59.589844 83.058594 56.710938 85.941406 C 56.101562 86.546875 55.476562 87.132812 54.835938 87.703125 Z M 54.835938 87.703125 " fill-opacity="1" fill-rule="nonzero"/></g></svg>