<svg xmlns="http://www.w3.org/2000/svg" xmlns:xlink="http://www.w3.org/1999/xlink" width="200" zoomAndPan="magnify" viewBox="0 0 150 149.999998" height="200" preserveAspectRatio="xMidYMid meet" version="1.0"><defs><clipPath id="id1"><path d="M 149.804688 75 C 149.804688 116.316406 116.316406 149.804688 75 149.804688 C 33.683594 149.804688 0.195312 116.316406 0.195312 75 C 0.195312 33.683594 33.683594 0.195312 75 0.195312 C 116.316406 0.195312 149.804688 33.683594 149.804688 75 Z M 149.804688 75 " clip-rule="nonzero"/></clipPath><clipPath id="id2"><path d="M 0 88.179688 L 61.335938 88.179688 L 61.335938 150 L 0 150 Z M 0 88.179688 " clip-rule="nonzero"/></clipPath><clipPath id="id3"><path d="M 149.804688 75 C 149.804688 116.316406 116.316406 149.804688 75 149.804688 C 33.683594 149.804688 0.195312 116.316406 0.195312 75 C 0.195312 33.683594 33.683594 0.195312 75 0.195312 C 116.316406 0.195312 149.804688 33.683594 149.804688 75 Z M 149.804688 75 " clip-rule="nonzero"/></clipPath><clipPath id="id4"><path d="M 0 88.179688 L 61.742188 88.179688 L 61.742188 150 L 0 150 Z M 0 88.179688 " clip-rule="nonzero"/></clipPath><clipPath id="id5"><path d="M 149.804688 75 C 149.804688 116.316406 116.316406 149.804688 75 149.804688 C 33.683594 149.804688 0.195312 116.316406 0.195312 75 C 0.195312 33.683594 33.683594 0.195312 75 0.195312 C 116.316406 0.195312 149.804688 33.683594 149.804688 75 Z M 149.804688 75 " clip-rule="nonzero"/></clipPath><clipPath id="id6"><path d="M 88.179688 0 L 150 0 L 150 72.316406 L 88.179688 72.316406 Z M 88.179688 0 " clip-rule="nonzero"/></clipPath><clipPath id="id7"><path d="M 149.804688 75 C 149.804688 116.316406 116.316406 149.804688 75 149.804688 C 33.683594 149.804688 0.195312 116.316406 0.195312 75 C 0.195312 33.683594 33.683594 0.195312 75 0.195312 C 116.316406 0.195312 149.804688 33.683594 149.804688 75 Z M 149.804688 75 " clip-rule="nonzero"/></clipPath><clipPath id="id8"><path d="M 149.804688 75 C 149.804688 116.316406 116.316406 149.804688 75 149.804688 C 33.683594 149.804688 0.195312 116.316406 0.195312 75 C 0.195312 33.683594 33.683594 0.195312 75 0.195312 C 116.316406 0.195312 149.804688 33.683594 149.804688 75 Z M 149.804688 75 " clip-rule="nonzero"/></clipPath><clipPath id="id9"><path d="M 0 6.832031 L 60.925781 6.832031 L 60.925781 84.515625 L 0 84.515625 Z M 0 6.832031 " clip-rule="nonzero"/></clipPath><clipPath id="id10"><path d="M 149.804688 75 C 149.804688 116.316406 116.316406 149.804688 75 149.804688 C 33.683594 149.804688 0.195312 116.316406 0.195312 75 C 0.195312 33.683594 33.683594 0.195312 75 0.195312 C 116.316406 0.195312 149.804688 33.683594 149.804688 75 Z M 149.804688 75 " clip-rule="nonzero"/></clipPath><clipPath id="id11"><path d="M 0 6.425781 L 61.335938 6.425781 L 61.335938 84.515625 L 0 84.515625 Z M 0 6.425781 " clip-rule="nonzero"/></clipPath><clipPath id="id12"><path d="M 149.804688 75 C 149.804688 116.316406 116.316406 149.804688 75 149.804688 C 33.683594 149.804688 0.195312 116.316406 0.195312 75 C 0.195312 33.683594 33.683594 0.195312 75 0.195312 C 116.316406 0.195312 149.804688 33.683594 149.804688 75 Z M 149.804688 75 " clip-rule="nonzero"/></clipPath><clipPath id="id13"><path d="M 94 80.449219 L 150 80.449219 L 150 150 L 94 150 Z M 94 80.449219 " clip-rule="nonzero"/></clipPath><clipPath id="id14"><path d="M 149.804688 75 C 149.804688 116.316406 116.316406 149.804688 75 149.804688 C 33.683594 149.804688 0.195312 116.316406 0.195312 75 C 0.195312 33.683594 33.683594 0.195312 75 0.195312 C 116.316406 0.195312 149.804688 33.683594 149.804688 75 Z M 149.804688 75 " clip-rule="nonzero"/></clipPath><clipPath id="id15"><path d="M 149.804688 75 C 149.804688 116.316406 116.316406 149.804688 75 149.804688 C 33.683594 149.804688 0.195312 116.316406 0.195312 75 C 0.195312 33.683594 33.683594 0.195312 75 0.195312 C 116.316406 0.195312 149.804688 33.683594 149.804688 75 Z M 149.804688 75 " clip-rule="nonzero"/></clipPath></defs><g clip-path="url(#id1)"><rect x="-15" width="180" fill="rgb(15.689087%, 19.60907%, 51.759338%)" y="-15" height="179.999997" fill-opacity="1"/><path fill="rgb(13.729858%, 12.159729%, 12.548828%)" d="M 190.855469 152.242188 L 190.855469 152.039062 L -39.992188 152.039062 L -39.992188 -2.171875 L 190.648438 -2.171875 L 190.648438 152.242188 L 190.855469 152.242188 L 190.855469 152.039062 L 190.855469 152.242188 L 191.058594 152.242188 L 191.058594 -2.375 C 191.058594 -2.429688 191.035156 -2.480469 191 -2.515625 C 190.957031 -2.554688 190.90625 -2.578125 190.855469 -2.578125 L -40.195312 -2.578125 C -40.25 -2.578125 -40.300781 -2.554688 -40.339844 -2.515625 C -40.375 -2.480469 -40.398438 -2.425781 -40.398438 -2.375 L -40.398438 152.242188 C -40.398438 152.296875 -40.378906 152.347656 -40.335938 152.386719 C -40.300781 152.425781 -40.25 152.445312 -40.195312 152.445312 L 190.855469 152.445312 C 190.90625 152.445312 190.957031 152.425781 191 152.386719 C 191.035156 152.347656 191.058594 152.296875 191.058594 152.242188 L 190.855469 152.242188 " fill-opacity="1" fill-rule="nonzero"/><path fill="rgb(100%, 100%, 100%)" d="M -12.519531 152.375 L -40.195312 152.242188 L -40.195312 132.167969 L 176.578125 -2.375 L 190.855469 -2.375 L 190.855469 30.8125 L -12.519531 152.375 " fill-opacity="1" fill-rule="nonzero"/><path fill="rgb(13.729858%, 12.159729%, 12.548828%)" d="M -12.519531 152.375 L -12.519531 152.171875 L -39.992188 152.042969 L -39.992188 132.28125 L 176.636719 -2.171875 L 190.648438 -2.171875 L 190.648438 30.695312 L -12.625 152.199219 L -12.519531 152.375 L -12.519531 152.171875 L -12.519531 152.375 L -12.417969 152.546875 L 190.957031 30.984375 C 191.019531 30.949219 191.058594 30.882812 191.058594 30.8125 L 191.058594 -2.375 C 191.058594 -2.429688 191.035156 -2.480469 191 -2.515625 C 190.957031 -2.554688 190.90625 -2.578125 190.855469 -2.578125 L 176.578125 -2.578125 C 176.539062 -2.578125 176.5 -2.566406 176.46875 -2.546875 L -40.300781 131.996094 C -40.363281 132.03125 -40.398438 132.097656 -40.398438 132.167969 L -40.398438 152.242188 C -40.398438 152.355469 -40.308594 152.445312 -40.195312 152.445312 L -12.523438 152.574219 C -12.488281 152.574219 -12.449219 152.566406 -12.417969 152.546875 L -12.519531 152.375 " fill-opacity="1" fill-rule="nonzero"/></g><g clip-path="url(#id2)"><g clip-path="url(#id3)"><path fill="rgb(76.078796%, 11.759949%, 22.749329%)" d="M 61.164062 88.460938 L -40.195312 152.242188 L -22.019531 152.242188 L 61.164062 101.703125 L 61.164062 88.460938 " fill-opacity="1" fill-rule="nonzero"/></g></g><g clip-path="url(#id4)"><g clip-path="url(#id5)"><path fill="rgb(13.729858%, 12.159729%, 12.548828%)" d="M 61.164062 88.460938 L 61.054688 88.289062 L -40.300781 152.070312 C -40.378906 152.121094 -40.414062 152.210938 -40.390625 152.300781 C -40.363281 152.386719 -40.285156 152.445312 -40.195312 152.445312 L -22.019531 152.445312 C -21.984375 152.445312 -21.945312 152.4375 -21.914062 152.417969 L 61.269531 101.875 C 61.332031 101.839844 61.367188 101.773438 61.367188 101.703125 L 61.367188 88.460938 C 61.367188 88.386719 61.328125 88.316406 61.261719 88.28125 C 61.199219 88.246094 61.117188 88.25 61.054688 88.289062 L 61.164062 88.460938 L 60.960938 88.460938 L 60.960938 101.589844 L -22.078125 152.039062 L -39.492188 152.039062 L 61.273438 88.632812 L 61.164062 88.460938 L 60.960938 88.460938 L 61.164062 88.460938 " fill-opacity="1" fill-rule="nonzero"/></g></g><g clip-path="url(#id6)"><g clip-path="url(#id7)"><path fill="rgb(76.078796%, 11.759949%, 22.749329%)" d="M 88.507812 72.035156 L 190.855469 9.484375 L 190.855469 -2.375 L 187.226562 -2.375 L 88.507812 58.210938 L 88.507812 72.035156 " fill-opacity="1" fill-rule="nonzero"/><path fill="rgb(13.729858%, 12.159729%, 12.548828%)" d="M 88.507812 72.035156 L 88.613281 72.210938 L 190.960938 9.660156 C 191.019531 9.621094 191.058594 9.554688 191.058594 9.484375 L 191.058594 -2.375 C 191.058594 -2.429688 191.035156 -2.480469 191 -2.515625 C 190.957031 -2.554688 190.90625 -2.578125 190.855469 -2.578125 L 187.226562 -2.578125 C 187.191406 -2.578125 187.152344 -2.566406 187.121094 -2.546875 L 88.398438 58.039062 C 88.339844 58.078125 88.304688 58.140625 88.304688 58.210938 L 88.304688 72.035156 C 88.304688 72.109375 88.34375 72.175781 88.40625 72.210938 C 88.46875 72.25 88.550781 72.246094 88.613281 72.210938 L 88.507812 72.035156 L 88.707031 72.035156 L 88.707031 58.328125 L 187.285156 -2.171875 L 190.648438 -2.171875 L 190.648438 9.371094 L 88.398438 71.859375 L 88.507812 72.035156 L 88.707031 72.035156 L 88.507812 72.035156 " fill-opacity="1" fill-rule="nonzero"/></g></g><g clip-path="url(#id8)"><path fill="rgb(100%, 100%, 100%)" d="M 163.179688 152.375 L 190.855469 152.242188 L 190.855469 132.167969 L -25.921875 -2.375 L -40.195312 -2.375 L -40.195312 30.8125 L 163.179688 152.375 " fill-opacity="1" fill-rule="nonzero"/><path fill="rgb(13.729858%, 12.159729%, 12.548828%)" d="M 163.179688 152.375 L 163.179688 152.574219 L 190.855469 152.445312 C 190.964844 152.445312 191.058594 152.355469 191.058594 152.242188 L 191.058594 132.167969 C 191.058594 132.097656 191.019531 132.03125 190.960938 131.996094 L -25.8125 -2.546875 C -25.84375 -2.566406 -25.882812 -2.578125 -25.921875 -2.578125 L -40.195312 -2.578125 C -40.25 -2.578125 -40.300781 -2.554688 -40.339844 -2.515625 C -40.375 -2.480469 -40.398438 -2.425781 -40.398438 -2.375 L -40.398438 30.8125 C -40.398438 30.882812 -40.359375 30.949219 -40.300781 30.984375 L 163.074219 152.546875 C 163.105469 152.566406 163.140625 152.574219 163.179688 152.574219 L 163.179688 152.375 L 163.285156 152.199219 L -39.992188 30.695312 L -39.992188 -2.171875 L -25.976562 -2.171875 L 190.648438 132.28125 L 190.648438 152.042969 L 163.175781 152.171875 L 163.179688 152.375 L 163.285156 152.199219 L 163.179688 152.375 " fill-opacity="1" fill-rule="nonzero"/></g><g clip-path="url(#id9)"><g clip-path="url(#id10)"><path fill="rgb(76.078796%, 11.759949%, 22.749329%)" d="M 60.832031 70.425781 L -40.195312 6.851562 L -40.195312 22.90625 L 60.832031 84.289062 L 60.832031 70.425781 " fill-opacity="1" fill-rule="nonzero"/></g></g><g clip-path="url(#id11)"><g clip-path="url(#id12)"><path fill="rgb(13.729858%, 12.159729%, 12.548828%)" d="M 60.832031 70.425781 L 60.941406 70.253906 L -40.085938 6.679688 C -40.148438 6.640625 -40.226562 6.636719 -40.292969 6.671875 C -40.359375 6.707031 -40.398438 6.777344 -40.398438 6.851562 L -40.398438 22.90625 C -40.398438 22.976562 -40.363281 23.042969 -40.300781 23.078125 L 60.730469 84.460938 C 60.789062 84.5 60.871094 84.5 60.933594 84.464844 C 60.996094 84.429688 61.035156 84.359375 61.035156 84.289062 L 61.035156 70.425781 C 61.035156 70.355469 61.003906 70.289062 60.941406 70.253906 L 60.832031 70.425781 L 60.628906 70.425781 L 60.628906 83.925781 L -39.992188 22.789062 L -39.992188 7.21875 L 60.726562 70.597656 L 60.832031 70.425781 L 60.628906 70.425781 L 60.832031 70.425781 " fill-opacity="1" fill-rule="nonzero"/></g></g><g clip-path="url(#id13)"><g clip-path="url(#id14)"><path fill="rgb(76.078796%, 11.759949%, 22.749329%)" d="M 94.21875 80.828125 L 94.21875 93.902344 L 190.855469 152.242188 L 190.855469 140.140625 L 94.21875 80.828125 " fill-opacity="1" fill-rule="nonzero"/><path fill="rgb(13.729858%, 12.159729%, 12.548828%)" d="M 94.21875 80.828125 L 94.015625 80.828125 L 94.015625 93.902344 C 94.015625 93.972656 94.050781 94.039062 94.113281 94.078125 L 190.75 152.417969 C 190.8125 152.453125 190.890625 152.457031 190.953125 152.417969 C 191.015625 152.382812 191.058594 152.316406 191.058594 152.242188 L 191.058594 140.140625 C 191.058594 140.070312 191.019531 140.003906 190.960938 139.96875 L 94.324219 80.65625 C 94.261719 80.617188 94.183594 80.617188 94.117188 80.652344 C 94.054688 80.6875 94.015625 80.753906 94.015625 80.828125 L 94.21875 80.828125 L 94.113281 81 L 190.648438 140.253906 L 190.648438 151.882812 L 94.421875 93.789062 L 94.421875 80.828125 L 94.21875 80.828125 L 94.113281 81 L 94.21875 80.828125 " fill-opacity="1" fill-rule="nonzero"/></g></g><g clip-path="url(#id15)"><path fill="rgb(100%, 100%, 100%)" d="M 190.855469 55.261719 L 96.414062 55.261719 L 96.414062 -2.375 L 53.585938 -2.375 L 53.585938 55.261719 L -40.851562 55.261719 L -40.851562 94.609375 L 53.585938 94.609375 L 53.585938 152.242188 L 96.414062 152.242188 L 96.414062 94.609375 L 190.855469 94.609375 L 190.855469 55.261719 " fill-opacity="1" fill-rule="nonzero"/><path fill="rgb(13.729858%, 12.159729%, 12.548828%)" d="M 190.855469 55.261719 L 190.855469 55.058594 L 96.617188 55.058594 L 96.617188 -2.375 C 96.617188 -2.429688 96.59375 -2.480469 96.558594 -2.515625 C 96.519531 -2.554688 96.46875 -2.578125 96.414062 -2.578125 L 53.585938 -2.578125 C 53.535156 -2.578125 53.480469 -2.554688 53.441406 -2.515625 C 53.40625 -2.480469 53.382812 -2.425781 53.382812 -2.375 L 53.382812 55.058594 L -40.851562 55.058594 C -40.90625 55.058594 -40.957031 55.078125 -40.996094 55.117188 C -41.035156 55.152344 -41.054688 55.207031 -41.054688 55.261719 L -41.054688 94.609375 C -41.054688 94.667969 -41.035156 94.71875 -40.996094 94.753906 C -40.957031 94.792969 -40.90625 94.8125 -40.851562 94.8125 L 53.382812 94.8125 L 53.382812 152.242188 C 53.382812 152.296875 53.40625 152.347656 53.441406 152.386719 C 53.480469 152.425781 53.53125 152.445312 53.585938 152.445312 L 96.414062 152.445312 C 96.46875 152.445312 96.519531 152.425781 96.558594 152.386719 C 96.59375 152.347656 96.617188 152.296875 96.617188 152.242188 L 96.617188 94.8125 L 190.855469 94.8125 C 190.90625 94.8125 190.957031 94.792969 191 94.753906 C 191.035156 94.71875 191.058594 94.667969 191.058594 94.609375 L 191.058594 55.261719 C 191.058594 55.207031 191.035156 55.15625 191 55.117188 C 190.957031 55.078125 190.90625 55.058594 190.855469 55.058594 L 190.855469 55.261719 L 190.648438 55.261719 L 190.648438 94.40625 L 96.414062 94.40625 C 96.359375 94.40625 96.308594 94.429688 96.269531 94.46875 C 96.230469 94.507812 96.210938 94.558594 96.210938 94.609375 L 96.210938 152.039062 L 53.789062 152.039062 L 53.789062 94.609375 C 53.789062 94.558594 53.769531 94.507812 53.730469 94.46875 C 53.691406 94.429688 53.640625 94.40625 53.585938 94.40625 L -40.652344 94.40625 L -40.652344 55.464844 L 53.585938 55.464844 C 53.640625 55.464844 53.691406 55.441406 53.730469 55.40625 C 53.769531 55.363281 53.789062 55.3125 53.789062 55.261719 L 53.789062 -2.171875 L 96.210938 -2.171875 L 96.210938 55.261719 C 96.210938 55.3125 96.230469 55.363281 96.269531 55.40625 C 96.308594 55.441406 96.359375 55.464844 96.414062 55.464844 L 190.855469 55.464844 L 190.855469 55.261719 L 190.648438 55.261719 L 190.855469 55.261719 " fill-opacity="1" fill-rule="nonzero"/><path fill="rgb(76.078796%, 11.759949%, 22.749329%)" d="M 190.855469 63.40625 L 86.527344 63.40625 L 86.527344 -2.375 L 63.472656 -2.375 L 63.472656 63.40625 L -40.851562 63.40625 L -40.851562 86.464844 L 62.152344 86.464844 L 62.152344 152.242188 L 86.527344 152.242188 L 86.527344 87.785156 L 190.855469 87.785156 L 190.855469 63.40625 " fill-opacity="1" fill-rule="nonzero"/><path fill="rgb(13.729858%, 12.159729%, 12.548828%)" d="M 190.855469 63.40625 L 190.855469 63.203125 L 86.730469 63.203125 L 86.730469 -2.375 C 86.730469 -2.429688 86.710938 -2.480469 86.671875 -2.515625 C 86.636719 -2.554688 86.585938 -2.578125 86.527344 -2.578125 L 63.472656 -2.578125 C 63.417969 -2.578125 63.363281 -2.554688 63.328125 -2.515625 C 63.289062 -2.480469 63.269531 -2.425781 63.269531 -2.375 L 63.269531 63.199219 L -40.851562 63.203125 C -40.90625 63.203125 -40.957031 63.222656 -40.996094 63.261719 C -41.035156 63.300781 -41.054688 63.351562 -41.054688 63.40625 L -41.054688 86.464844 C -41.054688 86.519531 -41.035156 86.570312 -40.996094 86.609375 C -40.957031 86.648438 -40.90625 86.667969 -40.851562 86.667969 L 61.949219 86.667969 L 61.949219 152.242188 C 61.949219 152.296875 61.96875 152.347656 62.007812 152.386719 C 62.046875 152.425781 62.097656 152.445312 62.152344 152.445312 L 86.527344 152.445312 C 86.585938 152.445312 86.636719 152.425781 86.671875 152.386719 C 86.710938 152.347656 86.730469 152.296875 86.730469 152.242188 L 86.730469 87.988281 L 190.855469 87.988281 C 190.90625 87.988281 190.957031 87.964844 191 87.929688 C 191.035156 87.890625 191.058594 87.839844 191.058594 87.785156 L 191.058594 63.40625 C 191.058594 63.351562 191.035156 63.300781 191 63.261719 C 190.957031 63.222656 190.90625 63.203125 190.855469 63.203125 L 190.855469 63.40625 L 190.648438 63.40625 L 190.648438 87.582031 L 86.527344 87.582031 C 86.476562 87.582031 86.425781 87.601562 86.386719 87.640625 C 86.347656 87.679688 86.324219 87.730469 86.324219 87.785156 L 86.324219 152.039062 L 62.355469 152.039062 L 62.355469 86.464844 C 62.355469 86.410156 62.332031 86.359375 62.292969 86.320312 C 62.253906 86.285156 62.203125 86.261719 62.152344 86.261719 L -40.652344 86.261719 L -40.652344 63.609375 L 63.472656 63.609375 C 63.523438 63.609375 63.574219 63.585938 63.613281 63.546875 C 63.652344 63.511719 63.671875 63.460938 63.671875 63.40625 L 63.671875 -2.171875 L 86.324219 -2.171875 L 86.324219 63.40625 C 86.324219 63.460938 86.347656 63.511719 86.386719 63.546875 C 86.425781 63.585938 86.476562 63.609375 86.527344 63.609375 L 190.855469 63.609375 L 190.855469 63.40625 L 190.648438 63.40625 L 190.855469 63.40625 " fill-opacity="1" fill-rule="nonzero"/></g><path fill="rgb(13.729858%, 12.159729%, 12.548828%)" d="M 149.804688 75 L 149.601562 75 C 149.601562 95.601562 141.253906 114.25 127.753906 127.753906 C 114.25 141.253906 95.601562 149.601562 75 149.601562 C 54.398438 149.601562 35.75 141.253906 22.246094 127.753906 C 8.746094 114.25 0.398438 95.601562 0.398438 75 C 0.398438 54.398438 8.746094 35.75 22.246094 22.246094 C 35.75 8.746094 54.398438 0.398438 75 0.394531 C 95.601562 0.398438 114.25 8.746094 127.753906 22.246094 C 141.253906 35.75 149.601562 54.398438 149.601562 75 L 150.007812 75 C 150.007812 33.574219 116.429688 -0.0117188 75 -0.0117188 C 33.574219 -0.0117188 -0.0117188 33.574219 -0.0117188 75 C -0.0117188 116.429688 33.574219 150.007812 75 150.007812 C 116.429688 150.007812 150.007812 116.429688 150.007812 75 L 149.804688 75 " fill-opacity="1" fill-rule="nonzero"/></svg>